<svg xmlns="http://www.w3.org/2000/svg" xmlns:xlink="http://www.w3.org/1999/xlink" version="1.1" width="256" height="256" viewBox="0 0 256 256" xml:space="preserve">

<defs>
</defs>
<g style="stroke: none; stroke-width: 0; stroke-dasharray: none; stroke-linecap: butt; stroke-linejoin: miter; stroke-miterlimit: 10; fill: none; fill-rule: nonzero; opacity: 1;" transform="translate(1.4065934065934016 1.4065934065934016) scale(2.81 2.81)" >
	<path d="M 74.564 13.138 c -1.914 -2.502 -2.968 -5.613 -2.968 -8.763 V 3.063 C 71.596 1.374 70.223 0 68.533 0 H 21.467 c -1.689 0 -3.063 1.374 -3.063 3.063 v 1.313 c 0 3.15 -1.054 6.261 -2.969 8.763 c -2.307 3.016 -3.578 6.769 -3.578 10.566 v 1.098 v 40.395 v 1.098 c 0 3.798 1.271 7.55 3.579 10.567 c 1.914 2.501 2.968 5.612 2.968 8.762 v 1.311 c 0 1.69 1.374 3.065 3.064 3.065 h 47.063 c 1.69 0 3.065 -1.374 3.065 -3.065 v -1.311 c 0 -3.15 1.054 -6.261 2.968 -8.763 c 2.307 -3.016 3.578 -6.768 3.578 -10.566 v -1.098 V 24.803 v -1.098 C 78.143 19.907 76.871 16.154 74.564 13.138 z M 61.838 78.535 H 28.162 c -7.354 0 -13.337 -5.983 -13.337 -13.337 V 24.803 c 0 -7.354 5.983 -13.337 13.337 -13.337 h 33.677 c 7.354 0 13.337 5.983 13.337 13.337 v 40.395 C 75.175 72.551 69.192 78.535 61.838 78.535 z M 21.371 3.063 c 0 -0.053 0.043 -0.096 0.096 -0.096 h 47.066 c 0.053 0 0.096 0.043 0.096 0.096 v 1.313 c 0 2.127 0.412 4.234 1.168 6.212 c -2.357 -1.325 -5.069 -2.089 -7.959 -2.089 H 28.162 c -2.89 0 -5.602 0.764 -7.958 2.088 c 0.756 -1.977 1.168 -4.085 1.168 -6.212 V 3.063 z M 68.629 86.935 c 0 0.054 -0.043 0.098 -0.098 0.098 H 21.469 c -0.054 0 -0.097 -0.043 -0.097 -0.098 v -1.311 c 0 -2.127 -0.412 -4.235 -1.168 -6.211 c 2.356 1.324 5.068 2.088 7.958 2.088 h 33.677 c 2.89 0 5.602 -0.764 7.959 -2.089 c -0.756 1.977 -1.168 4.085 -1.168 6.212 V 86.935 z" style="stroke: none; stroke-width: 1; stroke-dasharray: none; stroke-linecap: butt; stroke-linejoin: miter; stroke-miterlimit: 10; fill: rgb(0,0,0); fill-rule: nonzero; opacity: 1;" transform=" matrix(1 0 0 1 0 0) " stroke-linecap="round" />
	<path d="M 52.418 72.714 H 37.582 c -0.82 0 -1.484 -0.664 -1.484 -1.484 s 0.664 -1.484 1.484 -1.484 h 14.835 c 0.819 0 1.484 0.664 1.484 1.484 S 53.237 72.714 52.418 72.714 z" style="stroke: none; stroke-width: 1; stroke-dasharray: none; stroke-linecap: butt; stroke-linejoin: miter; stroke-miterlimit: 10; fill: rgb(0,0,0); fill-rule: nonzero; opacity: 1;" transform=" matrix(1 0 0 1 0 0) " stroke-linecap="round" />
	<path d="M 57.096 29.509 c -2.54 0 -4.607 -2.067 -4.607 -4.607 s 2.067 -4.607 4.607 -4.607 c 2.541 0 4.608 2.067 4.608 4.607 S 59.637 29.509 57.096 29.509 z M 57.096 23.261 c -0.904 0 -1.64 0.736 -1.64 1.64 s 0.736 1.64 1.64 1.64 c 0.905 0 1.641 -0.736 1.641 -1.64 S 58.001 23.261 57.096 23.261 z" style="stroke: none; stroke-width: 1; stroke-dasharray: none; stroke-linecap: butt; stroke-linejoin: miter; stroke-miterlimit: 10; fill: rgb(0,0,0); fill-rule: nonzero; opacity: 1;" transform=" matrix(1 0 0 1 0 0) " stroke-linecap="round" />
	<path d="M 47.274 62.042 c -0.214 0 -0.432 -0.046 -0.637 -0.145 c -0.74 -0.353 -1.053 -1.238 -0.701 -1.977 l 6.38 -13.373 l -4.896 -3.063 c -0.645 -0.404 -0.88 -1.23 -0.544 -1.913 l 4.952 -10.046 c 0.363 -0.735 1.254 -1.038 1.987 -0.675 c 0.735 0.362 1.037 1.251 0.675 1.986 l -4.36 8.844 l 4.881 3.053 c 0.639 0.4 0.877 1.215 0.551 1.896 l -6.949 14.568 C 48.359 61.731 47.828 62.042 47.274 62.042 z" style="stroke: none; stroke-width: 1; stroke-dasharray: none; stroke-linecap: butt; stroke-linejoin: miter; stroke-miterlimit: 10; fill: rgb(0,0,0); fill-rule: nonzero; opacity: 1;" transform=" matrix(1 0 0 1 0 0) " stroke-linecap="round" />
	<path d="M 39.483 62.042 c -0.214 0 -0.432 -0.046 -0.638 -0.145 c -0.739 -0.353 -1.053 -1.238 -0.7 -1.977 l 6.178 -12.954 c 0.353 -0.739 1.241 -1.053 1.978 -0.7 c 0.74 0.353 1.054 1.238 0.7 1.977 l -6.178 12.954 C 40.569 61.73 40.037 62.042 39.483 62.042 z" style="stroke: none; stroke-width: 1; stroke-dasharray: none; stroke-linecap: butt; stroke-linejoin: miter; stroke-miterlimit: 10; fill: rgb(0,0,0); fill-rule: nonzero; opacity: 1;" transform=" matrix(1 0 0 1 0 0) " stroke-linecap="round" />
	<path d="M 59.317 40.472 c -0.485 0 -0.942 -0.237 -1.22 -0.639 l -1.928 -2.787 c -0.466 -0.674 -0.297 -1.598 0.376 -2.064 c 0.672 -0.466 1.597 -0.298 2.064 0.376 l 0.471 0.681 l 1.557 -3.264 c 0.353 -0.739 1.239 -1.052 1.977 -0.7 c 0.74 0.353 1.054 1.238 0.7 1.978 l -2.659 5.574 c -0.228 0.478 -0.693 0.798 -1.22 0.84 C 59.396 40.47 59.356 40.472 59.317 40.472 z" style="stroke: none; stroke-width: 1; stroke-dasharray: none; stroke-linecap: butt; stroke-linejoin: miter; stroke-miterlimit: 10; fill: rgb(0,0,0); fill-rule: nonzero; opacity: 1;" transform=" matrix(1 0 0 1 0 0) " stroke-linecap="round" />
	<path d="M 43.041 34.742 c -0.214 0 -0.432 -0.047 -0.638 -0.145 c -0.739 -0.353 -1.053 -1.238 -0.7 -1.978 l 2.659 -5.574 c 0.182 -0.382 0.519 -0.667 0.924 -0.786 c 0.406 -0.119 0.843 -0.058 1.202 0.167 l 2.953 1.847 c 0.694 0.435 0.905 1.35 0.47 2.044 c -0.435 0.696 -1.35 0.905 -2.045 0.471 l -1.542 -0.965 l -1.943 4.073 C 44.127 34.43 43.595 34.742 43.041 34.742 z" style="stroke: none; stroke-width: 1; stroke-dasharray: none; stroke-linecap: butt; stroke-linejoin: miter; stroke-miterlimit: 10; fill: rgb(0,0,0); fill-rule: nonzero; opacity: 1;" transform=" matrix(1 0 0 1 0 0) " stroke-linecap="round" />
	<path d="M 39.147 42.722 H 28.025 c -0.82 0 -1.484 -0.664 -1.484 -1.484 s 0.664 -1.484 1.484 -1.484 h 11.122 c 0.82 0 1.484 0.664 1.484 1.484 S 39.967 42.722 39.147 42.722 z" style="stroke: none; stroke-width: 1; stroke-dasharray: none; stroke-linecap: butt; stroke-linejoin: miter; stroke-miterlimit: 10; fill: rgb(0,0,0); fill-rule: nonzero; opacity: 1;" transform=" matrix(1 0 0 1 0 0) " stroke-linecap="round" />
	<path d="M 36.84 36.355 h -8.815 c -0.82 0 -1.484 -0.664 -1.484 -1.484 s 0.664 -1.484 1.484 -1.484 h 8.815 c 0.82 0 1.484 0.664 1.484 1.484 S 37.66 36.355 36.84 36.355 z" style="stroke: none; stroke-width: 1; stroke-dasharray: none; stroke-linecap: butt; stroke-linejoin: miter; stroke-miterlimit: 10; fill: rgb(0,0,0); fill-rule: nonzero; opacity: 1;" transform=" matrix(1 0 0 1 0 0) " stroke-linecap="round" />
	<path d="M 36.51 49.088 h -8.485 c -0.82 0 -1.484 -0.664 -1.484 -1.484 c 0 -0.819 0.664 -1.484 1.484 -1.484 h 8.485 c 0.82 0 1.484 0.664 1.484 1.484 C 37.994 48.424 37.33 49.088 36.51 49.088 z" style="stroke: none; stroke-width: 1; stroke-dasharray: none; stroke-linecap: butt; stroke-linejoin: miter; stroke-miterlimit: 10; fill: rgb(0,0,0); fill-rule: nonzero; opacity: 1;" transform=" matrix(1 0 0 1 0 0) " stroke-linecap="round" />
</g>
</svg>